<svg id="visual" viewBox="0 0 900 450" width="900" height="450" xmlns="http://www.w3.org/2000/svg" xmlns:xlink="http://www.w3.org/1999/xlink" version="1.1"><rect x="0" y="0" width="900" height="450" fill="#ffffff"></rect><defs><linearGradient id="grad1_0" x1="50%" y1="0%" x2="100%" y2="100%"><stop offset="10%" stop-color="#ffffff" stop-opacity="1"></stop><stop offset="90%" stop-color="#ffffff" stop-opacity="1"></stop></linearGradient></defs><defs><linearGradient id="grad2_0" x1="0%" y1="0%" x2="50%" y2="100%"><stop offset="10%" stop-color="#ffffff" stop-opacity="1"></stop><stop offset="90%" stop-color="#ffffff" stop-opacity="1"></stop></linearGradient></defs><g transform="translate(900, 0)"><path d="M0 202.5C-21.4 187.3 -42.9 172.1 -68.1 164.5C-93.4 156.8 -122.5 156.7 -143.2 143.2C-163.9 129.6 -176.3 102.6 -184.8 76.5C-193.3 50.4 -197.9 25.2 -202.5 0L0 0Z" fill="#4eab9e"></path></g><g transform="translate(0, 450)"><path d="M0 -202.5C22.6 -184.4 45.3 -166.3 62.8 -151.5C80.3 -136.8 92.6 -125.3 115.3 -115.3C137.9 -105.2 170.8 -96.5 187.1 -77.5C203.3 -58.5 202.9 -29.3 202.5 0L0 0Z" fill="#4eab9e"></path></g></svg>