<svg id="visual" viewBox="0 0 450 900" width="450" height="900" xmlns="http://www.w3.org/2000/svg" xmlns:xlink="http://www.w3.org/1999/xlink" version="1.1"><path d="M0 75L18.8 86.2C37.7 97.3 75.3 119.7 112.8 114.7C150.3 109.7 187.7 77.3 225.2 77.2C262.7 77 300.3 109 337.8 115.7C375.3 122.3 412.7 103.7 431.3 94.3L450 85L450 0L431.3 0C412.7 0 375.3 0 337.8 0C300.3 0 262.7 0 225.2 0C187.7 0 150.3 0 112.8 0C75.3 0 37.7 0 18.8 0L0 0Z" fill="#4EAC9F" stroke-linecap="round" stroke-linejoin="miter"></path></svg>